<svg xmlns="http://www.w3.org/2000/svg" width="800" height="450" viewBox="0 0 800 450">
  <defs><linearGradient id="bg" x1="0%" y1="0%" x2="100%" y2="100%"><stop offset="0%" style="stop-color:#1a1a1a"/><stop offset="100%" style="stop-color:#0d0d0d"/></linearGradient></defs>
  <rect width="800" height="450" fill="url(#bg)"/>
  <g transform="translate(400,200)">
    <rect x="-140" y="-40" width="110" height="150" rx="2" fill="#333"/>
    <rect x="-20" y="-80" width="110" height="190" rx="2" fill="#2a2a2a"/>
    <rect x="-130" y="-30" width="90" height="35" rx="1" fill="#c0402a" opacity="0.2"/>
    <rect x="-130" y="15" width="90" height="35" rx="1" fill="#e8614a" opacity="0.15"/>
    <rect x="-130" y="60" width="90" height="35" rx="1" fill="#c0402a" opacity="0.2"/>
    <rect x="-10" y="-70" width="90" height="40" rx="1" fill="#e8614a" opacity="0.15"/>
    <rect x="-10" y="-20" width="90" height="40" rx="1" fill="#c0402a" opacity="0.2"/>
    <rect x="-10" y="30" width="90" height="40" rx="1" fill="#e8614a" opacity="0.15"/>
    <rect x="-10" y="80" width="90" height="20" rx="1" fill="#c0402a" opacity="0.2"/>
    <rect x="-400" y="110" width="800" height="200" fill="#0d0d0d"/>
    <text x="0" y="145" text-anchor="middle" fill="#e8614a" font-family="sans-serif" font-size="13" opacity="0.5">R+1 Habitation</text>
  </g>
</svg>